<svg xmlns="http://www.w3.org/2000/svg" width="900" height="803.8462" viewBox="0 0 46.8 41.8">
  <rect width="100%" height="100%" fill="white"/>
  <line x1="5.4" y1="24.775" x2="15.4" y2="24.775" stroke="#e8731a" stroke-width="0.126"/>
  <line x1="10.4" y1="24.775" x2="10.4" y2="5.4" stroke="#bbbbbb" stroke-width="0.126" stroke-dasharray="0.504,0.378"/>
  <line x1="10.4" y1="5.4" x2="10.4" y2="20.9" stroke="#bbbbbb" stroke-width="0.126" stroke-dasharray="0.504,0.378"/>
  <line x1="10.4" y1="5.4" x2="25.9" y2="5.4" stroke="#bbbbbb" stroke-width="0.126" stroke-dasharray="0.504,0.378"/>
  <line x1="25.9" y1="5.4" x2="25.9" y2="20.9" stroke="#bbbbbb" stroke-width="0.126" stroke-dasharray="0.504,0.378"/>
  <line x1="10.4" y1="20.9" x2="25.9" y2="20.9" stroke="#bbbbbb" stroke-width="0.126" stroke-dasharray="0.504,0.378"/>
  <line x1="10.4" y1="5.4" x2="25.9" y2="20.9" stroke="#bbbbbb" stroke-width="0.126" stroke-dasharray="0.504,0.378"/>
  <line x1="25.9" y1="20.9" x2="25.0161" y2="21.7839" stroke="#bbbbbb" stroke-width="0.126" stroke-dasharray="0.504,0.378"/>
  <line x1="25.9" y1="20.9" x2="26.7839" y2="20.0161" stroke="#bbbbbb" stroke-width="0.126" stroke-dasharray="0.504,0.378"/>
  <line x1="10.4" y1="5.4" x2="25.0161" y2="21.7839" stroke="#bbbbbb" stroke-width="0.126" stroke-dasharray="0.504,0.378"/>
  <line x1="10.4" y1="5.4" x2="26.7839" y2="20.0161" stroke="#bbbbbb" stroke-width="0.126" stroke-dasharray="0.504,0.378"/>
  <line x1="25.9" y1="5.4" x2="26.7839" y2="5.4" stroke="#bbbbbb" stroke-width="0.126" stroke-dasharray="0.504,0.378"/>
  <line x1="26.7839" y1="20.0161" x2="26.7839" y2="5.4" stroke="#bbbbbb" stroke-width="0.126" stroke-dasharray="0.504,0.378"/>
  <line x1="26.7839" y1="5.4" x2="29.775" y2="5.4" stroke="#bbbbbb" stroke-width="0.126" stroke-dasharray="0.504,0.378"/>
  <line x1="26.7839" y1="20.0161" x2="29.775" y2="17.025" stroke="#bbbbbb" stroke-width="0.126" stroke-dasharray="0.504,0.378"/>
  <line x1="29.775" y1="5.4" x2="29.775" y2="17.025" stroke="#bbbbbb" stroke-width="0.126" stroke-dasharray="0.504,0.378"/>
  <line x1="10.4" y1="20.9" x2="10.4" y2="21.7839" stroke="#bbbbbb" stroke-width="0.126" stroke-dasharray="0.504,0.378"/>
  <line x1="25.0161" y1="21.7839" x2="10.4" y2="21.7839" stroke="#bbbbbb" stroke-width="0.126" stroke-dasharray="0.504,0.378"/>
  <line x1="10.4" y1="21.7839" x2="10.4" y2="24.775" stroke="#bbbbbb" stroke-width="0.126" stroke-dasharray="0.504,0.378"/>
  <line x1="25.0161" y1="21.7839" x2="22.025" y2="24.775" stroke="#bbbbbb" stroke-width="0.126" stroke-dasharray="0.504,0.378"/>
  <line x1="10.4" y1="24.775" x2="22.025" y2="24.775" stroke="#bbbbbb" stroke-width="0.126" stroke-dasharray="0.504,0.378"/>
  <line x1="29.775" y1="5.4" x2="41.4" y2="5.4" stroke="#bbbbbb" stroke-width="0.126" stroke-dasharray="0.504,0.378"/>
  <line x1="26.7839" y1="20.0161" x2="41.4" y2="5.4" stroke="#bbbbbb" stroke-width="0.126" stroke-dasharray="0.504,0.378"/>
  <line x1="10.4" y1="24.775" x2="10.4" y2="36.4" stroke="#bbbbbb" stroke-width="0.126" stroke-dasharray="0.504,0.378"/>
  <line x1="25.0161" y1="21.7839" x2="10.4" y2="36.4" stroke="#bbbbbb" stroke-width="0.126" stroke-dasharray="0.504,0.378"/>
  <line x1="21.3226" y1="15.1441" x2="25.9" y2="10.5667" stroke="#bbbbbb" stroke-width="0.126" stroke-dasharray="0.504,0.378"/>
  <line x1="21.3226" y1="15.1441" x2="26.7839" y2="20.0161" stroke="#bbbbbb" stroke-width="0.126" stroke-dasharray="0.504,0.378"/>
  <line x1="25.9" y1="10.5667" x2="25.9" y2="5.4" stroke="#bbbbbb" stroke-width="0.126" stroke-dasharray="0.504,0.378"/>
  <line x1="20.1441" y1="16.3226" x2="15.5667" y2="20.9" stroke="#bbbbbb" stroke-width="0.126" stroke-dasharray="0.504,0.378"/>
  <line x1="20.1441" y1="16.3226" x2="25.0161" y2="21.7839" stroke="#bbbbbb" stroke-width="0.126" stroke-dasharray="0.504,0.378"/>
  <line x1="15.5667" y1="20.9" x2="10.4" y2="20.9" stroke="#bbbbbb" stroke-width="0.126" stroke-dasharray="0.504,0.378"/>
  <line x1="25.9" y1="5.4" x2="29.775" y2="5.4" stroke="#bbbbbb" stroke-width="0.126" stroke-dasharray="0.504,0.378"/>
  <line x1="10.4" y1="20.9" x2="10.4" y2="24.775" stroke="#bbbbbb" stroke-width="0.126" stroke-dasharray="0.504,0.378"/>
  <circle cx="10.4" cy="24.775" r="0.3801" fill="#202124"/>
  <circle cx="5.4" cy="24.775" r="0.3801" fill="#202124"/>
  <circle cx="15.4" cy="24.775" r="0.3801" fill="#202124"/>
  <circle cx="10.4" cy="24.775" r="0.3801" fill="#d93025"/>
  <circle cx="10.4" cy="5.4" r="0.3801" fill="#d93025"/>
  <circle cx="10.4" cy="5.4" r="0.3801" fill="#d93025"/>
  <circle cx="10.4" cy="20.9" r="0.3801" fill="#d93025"/>
  <circle cx="10.4" cy="5.4" r="0.3801" fill="#d93025"/>
  <circle cx="25.9" cy="5.4" r="0.3801" fill="#d93025"/>
  <circle cx="25.9" cy="5.4" r="0.3801" fill="#d93025"/>
  <circle cx="25.9" cy="20.9" r="0.3801" fill="#d93025"/>
  <circle cx="10.4" cy="20.9" r="0.3801" fill="#d93025"/>
  <circle cx="25.9" cy="20.9" r="0.3801" fill="#d93025"/>
  <circle cx="10.4" cy="5.4" r="0.3801" fill="#d93025"/>
  <circle cx="25.9" cy="20.9" r="0.3801" fill="#d93025"/>
  <circle cx="25.9" cy="20.9" r="0.3801" fill="#d93025"/>
  <circle cx="25.0161" cy="21.7839" r="0.3801" fill="#d93025"/>
  <circle cx="25.9" cy="20.9" r="0.3801" fill="#d93025"/>
  <circle cx="26.7839" cy="20.0161" r="0.3801" fill="#d93025"/>
  <circle cx="10.4" cy="5.4" r="0.3801" fill="#d93025"/>
  <circle cx="25.0161" cy="21.7839" r="0.3801" fill="#d93025"/>
  <circle cx="10.4" cy="5.4" r="0.3801" fill="#d93025"/>
  <circle cx="26.7839" cy="20.0161" r="0.3801" fill="#d93025"/>
  <circle cx="25.9" cy="5.4" r="0.3801" fill="#d93025"/>
  <circle cx="26.7839" cy="5.4" r="0.3801" fill="#d93025"/>
  <circle cx="26.7839" cy="20.0161" r="0.3801" fill="#d93025"/>
  <circle cx="26.7839" cy="5.4" r="0.3801" fill="#d93025"/>
  <circle cx="26.7839" cy="5.4" r="0.3801" fill="#d93025"/>
  <circle cx="29.775" cy="5.4" r="0.3801" fill="#d93025"/>
  <circle cx="26.7839" cy="20.0161" r="0.3801" fill="#d93025"/>
  <circle cx="29.775" cy="17.025" r="0.3801" fill="#d93025"/>
  <circle cx="29.775" cy="5.4" r="0.3801" fill="#d93025"/>
  <circle cx="29.775" cy="17.025" r="0.3801" fill="#d93025"/>
  <circle cx="10.4" cy="20.9" r="0.3801" fill="#d93025"/>
  <circle cx="10.4" cy="21.7839" r="0.3801" fill="#d93025"/>
  <circle cx="25.0161" cy="21.7839" r="0.3801" fill="#d93025"/>
  <circle cx="10.4" cy="21.7839" r="0.3801" fill="#d93025"/>
  <circle cx="10.4" cy="21.7839" r="0.3801" fill="#d93025"/>
  <circle cx="10.4" cy="24.775" r="0.3801" fill="#d93025"/>
  <circle cx="25.0161" cy="21.7839" r="0.3801" fill="#d93025"/>
  <circle cx="22.025" cy="24.775" r="0.3801" fill="#d93025"/>
  <circle cx="10.4" cy="24.775" r="0.3801" fill="#d93025"/>
  <circle cx="22.025" cy="24.775" r="0.3801" fill="#d93025"/>
  <circle cx="29.775" cy="5.4" r="0.3801" fill="#d93025"/>
  <circle cx="41.4" cy="5.4" r="0.3801" fill="#d93025"/>
  <circle cx="26.7839" cy="20.0161" r="0.3801" fill="#d93025"/>
  <circle cx="41.4" cy="5.4" r="0.3801" fill="#d93025"/>
  <circle cx="10.4" cy="24.775" r="0.3801" fill="#d93025"/>
  <circle cx="10.4" cy="36.4" r="0.3801" fill="#d93025"/>
  <circle cx="25.0161" cy="21.7839" r="0.3801" fill="#d93025"/>
  <circle cx="10.4" cy="36.4" r="0.3801" fill="#d93025"/>
  <circle cx="21.3226" cy="15.1441" r="0.3801" fill="#d93025"/>
  <circle cx="25.9" cy="10.5667" r="0.3801" fill="#d93025"/>
  <circle cx="21.3226" cy="15.1441" r="0.3801" fill="#d93025"/>
  <circle cx="26.7839" cy="20.0161" r="0.3801" fill="#d93025"/>
  <circle cx="25.9" cy="10.5667" r="0.3801" fill="#d93025"/>
  <circle cx="25.9" cy="5.4" r="0.3801" fill="#d93025"/>
  <circle cx="20.1441" cy="16.3226" r="0.3801" fill="#d93025"/>
  <circle cx="15.5667" cy="20.9" r="0.3801" fill="#d93025"/>
  <circle cx="20.1441" cy="16.3226" r="0.3801" fill="#d93025"/>
  <circle cx="25.0161" cy="21.7839" r="0.3801" fill="#d93025"/>
  <circle cx="15.5667" cy="20.9" r="0.3801" fill="#d93025"/>
  <circle cx="10.4" cy="20.9" r="0.3801" fill="#d93025"/>
  <circle cx="25.9" cy="5.4" r="0.3801" fill="#d93025"/>
  <circle cx="29.775" cy="5.4" r="0.3801" fill="#d93025"/>
  <circle cx="10.4" cy="20.9" r="0.3801" fill="#d93025"/>
  <circle cx="10.4" cy="24.775" r="0.3801" fill="#d93025"/>
  <text x="11.5402" y="4.2598" font-size="1.9003" fill="#5f6368" text-anchor="start" dominant-baseline="central">Apex</text>
  <text x="11.5402" y="19.7598" font-size="1.9003" fill="#5f6368" text-anchor="start" dominant-baseline="central">B</text>
  <line x1="23.5816" y1="5.4" x2="24.7598" y2="5.4" stroke="#5f6368" stroke-width="0.0756"/>
  <line x1="24.7598" y1="5.4" x2="25.0449" y2="5.4" stroke="#5f6368" stroke-width="0.0756"/>
  <path d="M25.0449 5.4 L24.9023 5.4499 L24.9023 5.3501 Z" fill="#5f6368"/>
  <text x="24.7598" y="4.2598" font-size="1.9003" fill="#5f6368" text-anchor="end" dominant-baseline="central">A</text>
  <line x1="27.0402" y1="23.1804" x2="34.1094" y2="23.1804" stroke="#5f6368" stroke-width="0.0756"/>
  <line x1="27.0402" y1="23.1804" x2="26.2824" y2="21.6649" stroke="#5f6368" stroke-width="0.0756"/>
  <path d="M26.2824 21.6649 L26.9265 22.29 L26.3961 22.5552 Z" fill="#5f6368"/>
  <text x="27.0402" y="22.0402" font-size="1.9003" fill="#5f6368" text-anchor="start" dominant-baseline="central">Apex 2</text>
  <line x1="27.2965" y1="25.2045" x2="28.4747" y2="25.2045" stroke="#5f6368" stroke-width="0.0756"/>
  <line x1="27.2965" y1="25.2045" x2="25.4905" y2="22.4954" stroke="#5f6368" stroke-width="0.0756"/>
  <path d="M25.4905 22.4954 L26.2942 23.1015 L25.7408 23.4705 Z" fill="#5f6368"/>
  <text x="27.2965" y="24.0643" font-size="1.9003" fill="#5f6368" text-anchor="start" dominant-baseline="central">D</text>
  <line x1="27.9241" y1="21.1563" x2="29.1023" y2="21.1563" stroke="#5f6368" stroke-width="0.0756"/>
  <line x1="27.9241" y1="21.1563" x2="27.3886" y2="20.6208" stroke="#5f6368" stroke-width="0.0756"/>
  <path d="M27.3886 20.6208 L27.75 20.7948 L27.5626 20.9823 Z" fill="#5f6368"/>
  <text x="27.9241" y="20.0161" font-size="1.9003" fill="#5f6368" text-anchor="start" dominant-baseline="central">C</text>
  <text x="27.9241" y="4.2598" font-size="1.9003" fill="#5f6368" text-anchor="start" dominant-baseline="central">E</text>
  <text x="30.9152" y="4.2598" font-size="1.9003" fill="#5f6368" text-anchor="start" dominant-baseline="central">G</text>
  <line x1="30.9152" y1="18.1652" x2="32.0934" y2="18.1652" stroke="#5f6368" stroke-width="0.0756"/>
  <line x1="30.9152" y1="18.1652" x2="30.3797" y2="17.6297" stroke="#5f6368" stroke-width="0.0756"/>
  <path d="M30.3797 17.6297 L30.7411 17.8037 L30.5537 17.9911 Z" fill="#5f6368"/>
  <text x="30.9152" y="17.025" font-size="1.9003" fill="#5f6368" text-anchor="start" dominant-baseline="central">H</text>
  <line x1="11.5402" y1="24.0643" x2="12.7184" y2="24.0643" stroke="#5f6368" stroke-width="0.0756"/>
  <line x1="11.5402" y1="24.0643" x2="10.7824" y2="22.5487" stroke="#5f6368" stroke-width="0.0756"/>
  <path d="M10.7824 22.5487 L11.4265 23.1739 L10.8961 23.4391 Z" fill="#5f6368"/>
  <text x="11.5402" y="22.9241" font-size="1.9003" fill="#5f6368" text-anchor="start" dominant-baseline="central">F</text>
  <line x1="11.5402" y1="27.0554" x2="12.7184" y2="27.0554" stroke="#5f6368" stroke-width="0.0756"/>
  <line x1="11.5402" y1="27.0554" x2="10.7824" y2="25.5399" stroke="#5f6368" stroke-width="0.0756"/>
  <path d="M10.7824 25.5399 L11.4265 26.165 L10.8961 26.4302 Z" fill="#5f6368"/>
  <text x="11.5402" y="25.9152" font-size="1.9003" fill="#5f6368" text-anchor="start" dominant-baseline="central">I</text>
  <line x1="23.1652" y1="25.9152" x2="24.3434" y2="25.9152" stroke="#5f6368" stroke-width="0.0756"/>
  <line x1="23.1652" y1="25.9152" x2="22.6297" y2="25.3797" stroke="#5f6368" stroke-width="0.0756"/>
  <path d="M22.6297 25.3797 L22.9911 25.5537 L22.8037 25.7411 Z" fill="#5f6368"/>
  <text x="23.1652" y="24.775" font-size="1.9003" fill="#5f6368" text-anchor="start" dominant-baseline="central">J</text>
  <text x="42.5402" y="4.2598" font-size="1.9003" fill="#5f6368" text-anchor="start" dominant-baseline="central">K</text>
  <line x1="11.5402" y1="37.5402" x2="12.7184" y2="37.5402" stroke="#5f6368" stroke-width="0.0756"/>
  <line x1="11.5402" y1="37.5402" x2="11.0047" y2="37.0047" stroke="#5f6368" stroke-width="0.0756"/>
  <path d="M11.0047 37.0047 L11.3661 37.1787 L11.1787 37.3661 Z" fill="#5f6368"/>
  <text x="11.5402" y="36.4" font-size="1.9003" fill="#5f6368" text-anchor="start" dominant-baseline="central">L</text>
  <line x1="22.4628" y1="16.2843" x2="23.641" y2="16.2843" stroke="#5f6368" stroke-width="0.0756"/>
  <line x1="22.4628" y1="16.2843" x2="21.9273" y2="15.7488" stroke="#5f6368" stroke-width="0.0756"/>
  <path d="M21.9273 15.7488 L22.2887 15.9228 L22.1013 16.1102 Z" fill="#5f6368"/>
  <text x="22.4628" y="15.1441" font-size="1.9003" fill="#5f6368" text-anchor="start" dominant-baseline="central">M</text>
  <text x="27.0402" y="9.4265" font-size="1.9003" fill="#5f6368" text-anchor="start" dominant-baseline="central">N</text>
  <line x1="17.8257" y1="17.4628" x2="19.0039" y2="17.4628" stroke="#5f6368" stroke-width="0.0756"/>
  <line x1="19.0039" y1="17.4628" x2="19.5394" y2="16.9273" stroke="#5f6368" stroke-width="0.0756"/>
  <path d="M19.5394 16.9273 L19.3654 17.2887 L19.1779 17.1013 Z" fill="#5f6368"/>
  <text x="19.0039" y="16.3226" font-size="1.9003" fill="#5f6368" text-anchor="end" dominant-baseline="central">O</text>
  <line x1="13.2483" y1="20.9" x2="14.4265" y2="20.9" stroke="#5f6368" stroke-width="0.0756"/>
  <line x1="14.4265" y1="20.9" x2="14.7115" y2="20.9" stroke="#5f6368" stroke-width="0.0756"/>
  <path d="M14.7115 20.9 L14.569 20.9499 L14.569 20.8501 Z" fill="#5f6368"/>
  <text x="14.4265" y="19.7598" font-size="1.9003" fill="#5f6368" text-anchor="end" dominant-baseline="central">P</text>
</svg>
